<?xml version="1.0" encoding="UTF-8" standalone="no"?>
<!DOCTYPE svg PUBLIC "-//W3C//DTD SVG 1.1//EN" "http://www.w3.org/Graphics/SVG/1.1/DTD/svg11.dtd">
<svg xmlns="http://www.w3.org/2000/svg" version="1.1" viewBox="0.00 0.00 957.00 547.00">
<g stroke-width="2.00" fill="none" stroke-linecap="butt">
<path stroke="#928c8b" vector-effect="non-scaling-stroke" d="
  M 819.14 238.21
  Q 818.29 237.96 818.29 237.50
  Q 818.28 205.69 818.26 173.88
  Q 818.26 165.99 816.95 162.01
  C 814.06 153.21 807.28 146.42 798.31 143.73
  Q 794.99 142.74 785.14 142.73
  Q 685.84 142.67 588.25 142.69
  Q 365.25 142.72 142.25 142.70
  Q 142.05 142.70 141.96 142.51"
/>
<path stroke="#928c8b" vector-effect="non-scaling-stroke" d="
  M 818.90 240.75
  Q 818.67 241.07 818.47 241.41
  Q 818.33 241.66 818.33 241.94
  Q 818.10 287.50 818.33 333.23
  Q 818.37 341.86 817.05 346.05
  C 814.19 355.06 807.05 362.17 798.03 364.50
  Q 794.27 365.47 785.31 365.47
  Q 492.51 365.40 145.35 365.40
  Q 140.74 365.40 136.08 363.26
  Q 124.43 357.90 120.60 346.32
  Q 119.23 342.18 119.24 329.71
  Q 119.27 285.32 119.43 240.70
  Q 119.51 219.10 119.45 197.50
  Q 119.40 179.72 119.48 167.75
  Q 119.49 165.78 119.95 164.03
  Q 123.95 149.01 138.42 143.96
  Q 139.13 143.71 139.86 143.64
  Q 140.89 143.55 141.01 142.83"
/>
<path stroke="#928c8b" vector-effect="non-scaling-stroke" d="
  M 622.50 178.25
  C 614.90 168.64 597.25 167.14 590.59 178.62
  Q 583.98 190.01 591.90 201.23
  Q 595.73 206.67 601.44 207.71
  Q 615.88 210.34 623.20 198.93
  C 627.27 192.59 627.12 184.09 622.50 178.25"
/>
<path stroke="#928c8b" vector-effect="non-scaling-stroke" d="
  M 171.39 174.11
  C 167.94 172.62 159.28 171.59 155.10 174.27
  Q 147.09 179.41 147.08 188.70
  Q 147.07 197.67 153.93 203.09
  C 158.48 206.68 163.95 206.51 169.27 205.16
  Q 174.80 203.76 178.12 199.01
  C 184.19 190.32 181.45 178.45 171.39 174.11"
/>
<path stroke="#928c8b" vector-effect="non-scaling-stroke" d="
  M 372.57 216.49
  L 375.80 202.88
  Q 375.93 202.35 375.40 202.25
  L 350.73 197.54
  Q 350.09 197.42 349.95 198.05
  L 346.68 213.86
  Q 346.59 214.31 346.12 214.26
  L 333.36 212.89
  A 0.53 0.52 5.4 0 0 332.78 213.36
  Q 331.75 224.60 330.75 236.29
  Q 330.71 236.71 330.56 237.11
  Q 330.39 237.50 330.82 237.53
  L 342.46 238.28
  Q 343.00 238.31 342.99 238.85
  Q 342.99 241.50 342.57 244.44
  Q 340.58 258.45 342.44 274.76
  C 343.14 280.90 345.92 290.66 351.56 294.38
  C 354.88 296.57 358.42 297.85 362.46 298.35
  Q 365.65 298.74 368.29 298.52
  Q 378.50 297.70 387.52 293.46
  Q 392.93 290.92 397.41 286.09
  A 0.77 0.76 53.4 0 0 397.53 285.24
  L 388.64 267.25
  Q 388.35 266.67 387.89 267.13
  C 380.05 274.83 371.28 272.81 368.95 262.03
  Q 367.62 255.88 368.11 250.25
  Q 368.45 246.26 368.63 242.22
  Q 368.71 240.59 370.31 240.87
  Q 376.45 241.93 381.65 242.04
  Q 382.26 242.05 382.39 241.45
  L 387.23 219.77
  Q 387.45 218.82 386.48 218.71
  L 373.02 217.14
  Q 372.43 217.07 372.57 216.49"
/>
<path stroke="#928c8b" vector-effect="non-scaling-stroke" d="
  M 682.21 261.30
  A 0.26 0.25 21.3 0 1 682.03 260.90
  Q 688.92 251.56 695.73 242.49
  Q 696.99 240.82 697.35 238.80
  Q 700.31 222.37 703.23 206.60
  Q 703.34 206.00 702.72 205.97
  L 644.21 203.03
  Q 643.65 203.00 643.52 203.54
  L 636.21 234.94
  A 0.29 0.28 -79.9 0 0 636.45 235.29
  L 657.23 237.93
  A 0.32 0.31 -66.3 0 1 657.43 238.45
  L 630.89 269.35
  A 1.05 1.03 -30.4 0 0 630.65 270.24
  L 635.10 292.73
  Q 635.21 293.25 635.74 293.25
  L 707.76 293.25
  Q 708.27 293.25 708.27 292.74
  L 708.27 264.51
  Q 708.27 264.00 707.76 263.94
  L 682.21 261.30"
/>
<path stroke="#928c8b" vector-effect="non-scaling-stroke" d="
  M 764.36 260.61
  Q 770.64 252.12 777.95 242.36
  Q 779.16 240.73 779.51 238.76
  Q 782.33 222.78 785.32 206.64
  Q 785.44 206.00 784.79 205.97
  L 726.32 203.02
  Q 725.78 203.00 725.66 203.51
  L 718.37 234.69
  Q 718.24 235.25 718.81 235.32
  L 739.28 237.92
  A 0.36 0.36 0.0 0 1 739.51 238.51
  L 713.02 269.31
  Q 712.65 269.74 712.76 270.29
  L 717.25 292.80
  Q 717.34 293.24 717.80 293.24
  L 789.83 293.25
  A 0.58 0.58 0.0 0 0 790.41 292.67
  L 790.41 264.59
  A 0.63 0.63 0.0 0 0 789.85 263.96
  L 764.68 261.35
  Q 763.87 261.27 764.36 260.61"
/>
<path stroke="#928c8b" vector-effect="non-scaling-stroke" d="
  M 528.23 287.69
  Q 536.98 290.55 545.74 290.77
  Q 552.26 290.94 559.92 288.44
  Q 568.98 285.49 573.39 279.42
  C 583.76 265.17 586.18 242.24 578.72 226.64
  C 568.77 205.82 542.26 202.68 525.14 216.49
  Q 524.59 216.93 524.49 216.24
  L 523.35 208.61
  Q 523.26 208.00 522.66 208.12
  L 488.92 214.68
  Q 488.63 214.74 488.65 215.03
  L 495.96 337.02
  Q 496.00 337.75 496.72 337.60
  L 529.24 330.85
  A 0.59 0.59 0.0 0 0 529.71 330.25
  L 527.53 288.23
  Q 527.49 287.45 528.23 287.69"
/>
<path stroke="#928c8b" vector-effect="non-scaling-stroke" d="
  M 216.75 215.75
  L 216.75 211.42
  Q 216.75 210.82 216.16 210.86
  L 190.47 212.52
  Q 189.99 212.55 190.00 213.03
  L 191.17 290.85
  Q 191.18 291.35 191.68 291.30
  L 216.48 288.51
  Q 217.01 288.45 216.99 287.91
  Q 216.91 285.69 216.27 281.99
  Q 213.39 265.15 215.97 247.18
  C 216.88 240.80 220.55 231.75 227.58 230.04
  C 234.37 228.39 237.89 233.79 239.23 239.52
  C 241.69 250.03 241.74 262.13 240.82 272.51
  Q 240.26 278.81 239.91 283.96
  A 0.80 0.80 0.0 0 0 240.60 284.81
  L 266.60 288.34
  Q 267.14 288.41 267.23 287.88
  Q 270.62 269.25 269.88 250.60
  Q 269.62 244.28 268.49 237.94
  C 267.33 231.46 265.07 224.89 261.12 219.69
  Q 251.82 207.45 234.75 209.17
  Q 226.22 210.03 217.23 216.01
  Q 216.74 216.34 216.75 215.75"
/>
<path stroke="#928c8b" vector-effect="non-scaling-stroke" d="
  M 624.50 211.81
  A 0.32 0.32 0.0 0 0 624.20 211.48
  L 589.46 209.52
  A 0.32 0.32 0.0 0 0 589.12 209.85
  L 591.52 291.93
  A 0.32 0.32 0.0 0 0 591.84 292.25
  L 622.85 292.75
  A 0.32 0.32 0.0 0 0 623.18 292.44
  L 624.50 211.81"
/>
<path stroke="#928c8b" vector-effect="non-scaling-stroke" d="
  M 300.82 231.69
  Q 304.65 229.71 308.87 230.00
  Q 315.03 230.44 320.12 232.58
  Q 320.60 232.78 320.70 232.28
  L 324.35 214.27
  Q 324.69 212.58 322.99 212.27
  Q 317.77 211.34 312.26 210.72
  Q 307.42 210.19 302.68 210.69
  Q 297.51 211.25 293.34 212.41
  C 284.10 214.97 276.72 222.24 274.72 231.99
  C 272.50 242.78 280.95 254.48 291.30 257.28
  Q 296.40 258.66 301.56 258.87
  Q 306.54 259.06 310.22 259.83
  Q 315.55 260.95 312.97 265.59
  C 310.87 269.36 306.03 269.47 302.08 269.26
  Q 298.93 269.09 296.22 268.09
  Q 292.74 266.80 289.40 265.43
  A 0.54 0.54 0.0 0 0 288.70 265.71
  L 280.24 285.46
  Q 279.97 286.09 280.61 286.33
  C 297.39 292.62 321.87 296.65 333.20 278.47
  Q 339.96 267.63 334.53 255.02
  Q 330.50 245.64 320.72 242.21
  C 315.79 240.49 310.82 241.36 305.78 240.97
  Q 303.80 240.81 301.34 239.63
  C 298.53 238.29 297.88 233.21 300.82 231.69"
/>
<path stroke="#928c8b" vector-effect="non-scaling-stroke" d="
  M 148.38 211.46
  Q 148.88 214.69 148.90 218.00
  C 149.00 233.42 149.89 248.96 150.09 264.04
  Q 150.27 277.21 150.96 289.48
  Q 150.99 290.05 151.56 290.07
  L 177.95 290.79
  Q 178.46 290.80 178.47 290.29
  L 179.65 213.69
  Q 179.66 213.19 179.16 213.18
  C 175.59 213.09 172.02 213.07 168.46 212.75
  Q 160.90 212.09 151.67 211.90
  Q 149.99 211.87 148.48 211.37
  A 0.08 0.08 0.0 0 0 148.38 211.46"
/>
<path stroke="#928c8b" vector-effect="non-scaling-stroke" d="
  M 451.98 221.08
  C 439.64 211.84 423.78 211.89 411.40 221.04
  Q 398.23 230.76 395.07 246.71
  C 392.14 261.51 398.11 275.68 409.05 285.88
  C 414.81 291.25 422.85 294.17 430.55 293.91
  C 438.64 293.64 445.67 290.86 452.49 287.13
  Q 453.05 286.82 453.05 287.46
  L 453.04 293.05
  Q 453.03 293.73 453.72 293.80
  Q 460.50 294.48 467.27 295.39
  C 470.96 295.89 474.62 295.85 478.17 296.83
  Q 478.74 296.98 478.75 296.39
  C 478.98 286.71 478.91 276.75 479.28 266.94
  Q 480.03 246.66 480.06 226.89
  Q 480.06 222.48 480.56 218.05
  Q 480.61 217.60 480.15 217.55
  L 453.20 214.93
  Q 452.24 214.84 452.24 215.81
  L 452.27 220.93
  Q 452.27 221.29 451.98 221.08"
/>
<path stroke="#928c8b" vector-effect="non-scaling-stroke" d="
  M 596.31 199.64
  C 600.39 204.29 607.77 204.54 613.19 202.14
  Q 619.60 199.31 621.17 192.43
  C 623.47 182.41 616.08 175.49 606.40 175.00
  C 592.48 174.30 588.23 190.45 596.31 199.64"
/>
<path stroke="#928c8b" vector-effect="non-scaling-stroke" d="
  M 665.99 234.65
  A 0.32 0.32 0.0 0 1 666.19 235.18
  L 635.47 270.87
  A 0.32 0.32 0.0 0 0 635.40 271.14
  L 638.79 288.49
  A 0.32 0.32 0.0 0 0 639.10 288.75
  L 703.44 288.75
  A 0.32 0.32 0.0 0 0 703.76 288.43
  L 703.76 268.54
  A 0.32 0.32 0.0 0 0 703.47 268.22
  L 673.89 265.06
  A 0.32 0.32 0.0 0 1 673.67 264.55
  L 692.70 239.10
  A 0.32 0.32 0.0 0 0 692.76 238.97
  L 697.85 210.62
  A 0.32 0.32 0.0 0 0 697.55 210.24
  L 647.53 207.76
  A 0.32 0.32 0.0 0 0 647.21 208.01
  L 641.62 230.92
  A 0.32 0.32 0.0 0 0 641.89 231.31
  L 665.99 234.65"
/>
<path stroke="#928c8b" vector-effect="non-scaling-stroke" d="
  M 748.13 234.66
  A 0.31 0.31 0.0 0 1 748.32 235.17
  L 717.57 270.89
  A 0.31 0.31 0.0 0 0 717.50 271.15
  L 720.88 288.51
  A 0.31 0.31 0.0 0 0 721.19 288.76
  L 785.58 288.75
  A 0.31 0.31 0.0 0 0 785.89 288.44
  L 785.87 268.48
  A 0.31 0.31 0.0 0 0 785.59 268.17
  L 755.99 265.07
  A 0.31 0.31 0.0 0 1 755.78 264.57
  L 774.85 239.08
  A 0.31 0.31 0.0 0 0 774.90 238.95
  L 779.96 210.61
  A 0.31 0.31 0.0 0 0 779.67 210.24
  L 729.63 207.76
  A 0.31 0.31 0.0 0 0 729.31 208.00
  L 723.73 230.93
  A 0.31 0.31 0.0 0 0 723.99 231.31
  L 748.13 234.66"
/>
<path stroke="#928c8b" vector-effect="non-scaling-stroke" d="
  M 523.46 281.41
  Q 532.56 284.71 540.57 285.86
  Q 550.49 287.29 561.46 282.93
  Q 566.39 280.97 569.19 277.46
  C 579.61 264.42 581.36 240.74 573.11 226.48
  Q 566.92 215.77 554.65 213.43
  Q 537.84 210.22 525.05 222.82
  Q 524.61 223.25 524.03 223.07
  L 521.33 222.20
  Q 520.69 221.99 520.59 221.32
  L 519.44 213.78
  Q 519.36 213.25 518.84 213.35
  L 493.97 218.14
  Q 493.42 218.24 493.46 218.80
  L 500.17 331.66
  Q 500.21 332.25 500.79 332.13
  L 524.40 327.36
  Q 524.92 327.26 524.89 326.73
  L 522.71 281.97
  Q 522.67 281.12 523.46 281.41"
/>
<path stroke="#928c8b" vector-effect="non-scaling-stroke" d="
  M 619.99 216.05
  A 0.30 0.30 0.0 0 0 619.71 215.74
  L 593.95 214.27
  A 0.30 0.30 0.0 0 0 593.63 214.58
  L 596.00 287.46
  A 0.30 0.30 0.0 0 0 596.29 287.75
  L 618.35 288.24
  A 0.30 0.30 0.0 0 0 618.66 287.95
  L 619.99 216.05"
/>
<path stroke="#928c8b" vector-effect="non-scaling-stroke" d="
  M 541.35 270.71
  C 550.68 269.80 557.88 260.14 556.38 251.00
  C 555.44 245.33 551.76 239.38 546.28 237.09
  C 539.20 234.15 531.44 237.45 526.49 242.74
  Q 522.04 247.49 522.81 254.55
  C 523.98 265.19 530.02 271.81 541.35 270.71"
/>
<path stroke="#928c8b" vector-effect="non-scaling-stroke" d="
  M 437.1505 267.0146
  A 15.68 15.04 88.5 0 0 451.7748 250.9463
  A 15.68 15.04 88.5 0 0 436.3295 235.6654
  A 15.68 15.04 88.5 0 0 421.7052 251.7337
  A 15.68 15.04 88.5 0 0 437.1505 267.0146"
/>
<path stroke="#928c8b" vector-effect="non-scaling-stroke" d="
  M 536.52 265.95
  C 548.18 268.04 555.99 256.30 550.01 246.18
  Q 546.40 240.07 540.26 240.64
  Q 535.39 241.09 530.30 245.66
  C 528.59 247.19 527.29 249.92 527.29 252.26
  C 527.31 258.57 529.50 264.69 536.52 265.95"
/>
</g>
<path fill="#ffffff" d="
  M 819.14 238.21
  Q 818.29 237.96 818.29 237.50
  Q 818.28 205.69 818.26 173.88
  Q 818.26 165.99 816.95 162.01
  C 814.06 153.21 807.28 146.42 798.31 143.73
  Q 794.99 142.74 785.14 142.73
  Q 685.84 142.67 588.25 142.69
  Q 365.25 142.72 142.25 142.70
  Q 142.05 142.70 141.96 142.51
  Q 142.16 142.29 142.46 142.11
  Q 142.72 141.96 143.07 141.94
  Q 150.28 141.69 157.50 141.70
  Q 413.81 141.81 685.91 141.77
  Q 689.29 141.77 692.52 141.23
  Q 697.72 140.35 702.86 141.52
  C 703.90 141.75 705.89 141.96 706.89 141.59
  Q 710.25 140.35 713.62 141.45
  Q 714.17 141.62 714.73 141.49
  Q 716.89 140.98 720.25 140.96
  Q 754.24 140.74 786.15 140.98
  Q 790.93 141.01 793.94 141.51
  Q 797.47 142.09 801.11 143.14
  Q 802.55 143.56 803.59 144.76
  Q 803.97 145.21 804.50 145.42
  Q 806.59 146.27 807.99 148.11
  A 1.54 1.50 -10.0 0 0 808.77 148.64
  Q 809.59 148.87 810.18 149.46
  Q 815.55 154.84 818.09 162.17
  Q 819.22 165.42 819.16 171.92
  Q 818.89 205.06 819.14 238.21
  Z"
/>
<path fill="#241817" d="
  M 141.96 142.51
  Q 142.05 142.70 142.25 142.70
  Q 365.25 142.72 588.25 142.69
  Q 685.84 142.67 785.14 142.73
  Q 794.99 142.74 798.31 143.73
  C 807.28 146.42 814.06 153.21 816.95 162.01
  Q 818.26 165.99 818.26 173.88
  Q 818.28 205.69 818.29 237.50
  Q 818.29 237.96 819.14 238.21
  Q 818.50 239.57 818.90 240.75
  Q 818.67 241.07 818.47 241.41
  Q 818.33 241.66 818.33 241.94
  Q 818.10 287.50 818.33 333.23
  Q 818.37 341.86 817.05 346.05
  C 814.19 355.06 807.05 362.17 798.03 364.50
  Q 794.27 365.47 785.31 365.47
  Q 492.51 365.40 145.35 365.40
  Q 140.74 365.40 136.08 363.26
  Q 124.43 357.90 120.60 346.32
  Q 119.23 342.18 119.24 329.71
  Q 119.27 285.32 119.43 240.70
  Q 119.51 219.10 119.45 197.50
  Q 119.40 179.72 119.48 167.75
  Q 119.49 165.78 119.95 164.03
  Q 123.95 149.01 138.42 143.96
  Q 139.13 143.71 139.86 143.64
  Q 140.89 143.55 141.01 142.83
  L 141.96 142.51
  Z
  M 622.50 178.25
  C 614.90 168.64 597.25 167.14 590.59 178.62
  Q 583.98 190.01 591.90 201.23
  Q 595.73 206.67 601.44 207.71
  Q 615.88 210.34 623.20 198.93
  C 627.27 192.59 627.12 184.09 622.50 178.25
  Z
  M 171.39 174.11
  C 167.94 172.62 159.28 171.59 155.10 174.27
  Q 147.09 179.41 147.08 188.70
  Q 147.07 197.67 153.93 203.09
  C 158.48 206.68 163.95 206.51 169.27 205.16
  Q 174.80 203.76 178.12 199.01
  C 184.19 190.32 181.45 178.45 171.39 174.11
  Z
  M 372.57 216.49
  L 375.80 202.88
  Q 375.93 202.35 375.40 202.25
  L 350.73 197.54
  Q 350.09 197.42 349.95 198.05
  L 346.68 213.86
  Q 346.59 214.31 346.12 214.26
  L 333.36 212.89
  A 0.53 0.52 5.4 0 0 332.78 213.36
  Q 331.75 224.60 330.75 236.29
  Q 330.71 236.71 330.56 237.11
  Q 330.39 237.50 330.82 237.53
  L 342.46 238.28
  Q 343.00 238.31 342.99 238.85
  Q 342.99 241.50 342.57 244.44
  Q 340.58 258.45 342.44 274.76
  C 343.14 280.90 345.92 290.66 351.56 294.38
  C 354.88 296.57 358.42 297.85 362.46 298.35
  Q 365.65 298.74 368.29 298.52
  Q 378.50 297.70 387.52 293.46
  Q 392.93 290.92 397.41 286.09
  A 0.77 0.76 53.4 0 0 397.53 285.24
  L 388.64 267.25
  Q 388.35 266.67 387.89 267.13
  C 380.05 274.83 371.28 272.81 368.95 262.03
  Q 367.62 255.88 368.11 250.25
  Q 368.45 246.26 368.63 242.22
  Q 368.71 240.59 370.31 240.87
  Q 376.45 241.93 381.65 242.04
  Q 382.26 242.05 382.39 241.45
  L 387.23 219.77
  Q 387.45 218.82 386.48 218.71
  L 373.02 217.14
  Q 372.43 217.07 372.57 216.49
  Z
  M 682.21 261.30
  A 0.26 0.25 21.3 0 1 682.03 260.90
  Q 688.92 251.56 695.73 242.49
  Q 696.99 240.82 697.35 238.80
  Q 700.31 222.37 703.23 206.60
  Q 703.34 206.00 702.72 205.97
  L 644.21 203.03
  Q 643.65 203.00 643.52 203.54
  L 636.21 234.94
  A 0.29 0.28 -79.9 0 0 636.45 235.29
  L 657.23 237.93
  A 0.32 0.31 -66.3 0 1 657.43 238.45
  L 630.89 269.35
  A 1.05 1.03 -30.4 0 0 630.65 270.24
  L 635.10 292.73
  Q 635.21 293.25 635.74 293.25
  L 707.76 293.25
  Q 708.27 293.25 708.27 292.74
  L 708.27 264.51
  Q 708.27 264.00 707.76 263.94
  L 682.21 261.30
  Z
  M 764.36 260.61
  Q 770.64 252.12 777.95 242.36
  Q 779.16 240.73 779.51 238.76
  Q 782.33 222.78 785.32 206.64
  Q 785.44 206.00 784.79 205.97
  L 726.32 203.02
  Q 725.78 203.00 725.66 203.51
  L 718.37 234.69
  Q 718.24 235.25 718.81 235.32
  L 739.28 237.92
  A 0.36 0.36 0.0 0 1 739.51 238.51
  L 713.02 269.31
  Q 712.65 269.74 712.76 270.29
  L 717.25 292.80
  Q 717.34 293.24 717.80 293.24
  L 789.83 293.25
  A 0.58 0.58 0.0 0 0 790.41 292.67
  L 790.41 264.59
  A 0.63 0.63 0.0 0 0 789.85 263.96
  L 764.68 261.35
  Q 763.87 261.27 764.36 260.61
  Z
  M 528.23 287.69
  Q 536.98 290.55 545.74 290.77
  Q 552.26 290.94 559.92 288.44
  Q 568.98 285.49 573.39 279.42
  C 583.76 265.17 586.18 242.24 578.72 226.64
  C 568.77 205.82 542.26 202.68 525.14 216.49
  Q 524.59 216.93 524.49 216.24
  L 523.35 208.61
  Q 523.26 208.00 522.66 208.12
  L 488.92 214.68
  Q 488.63 214.74 488.65 215.03
  L 495.96 337.02
  Q 496.00 337.75 496.72 337.60
  L 529.24 330.85
  A 0.59 0.59 0.0 0 0 529.71 330.25
  L 527.53 288.23
  Q 527.49 287.45 528.23 287.69
  Z
  M 216.75 215.75
  L 216.75 211.42
  Q 216.75 210.82 216.16 210.86
  L 190.47 212.52
  Q 189.99 212.55 190.00 213.03
  L 191.17 290.85
  Q 191.18 291.35 191.68 291.30
  L 216.48 288.51
  Q 217.01 288.45 216.99 287.91
  Q 216.91 285.69 216.27 281.99
  Q 213.39 265.15 215.97 247.18
  C 216.88 240.80 220.55 231.75 227.58 230.04
  C 234.37 228.39 237.89 233.79 239.23 239.52
  C 241.69 250.03 241.74 262.13 240.82 272.51
  Q 240.26 278.81 239.91 283.96
  A 0.80 0.80 0.0 0 0 240.60 284.81
  L 266.60 288.34
  Q 267.14 288.41 267.23 287.88
  Q 270.62 269.25 269.88 250.60
  Q 269.62 244.28 268.49 237.94
  C 267.33 231.46 265.07 224.89 261.12 219.69
  Q 251.82 207.45 234.75 209.17
  Q 226.22 210.03 217.23 216.01
  Q 216.74 216.34 216.75 215.75
  Z
  M 624.50 211.81
  A 0.32 0.32 0.0 0 0 624.20 211.48
  L 589.46 209.52
  A 0.32 0.32 0.0 0 0 589.12 209.85
  L 591.52 291.93
  A 0.32 0.32 0.0 0 0 591.84 292.25
  L 622.85 292.75
  A 0.32 0.32 0.0 0 0 623.18 292.44
  L 624.50 211.81
  Z
  M 300.82 231.69
  Q 304.65 229.71 308.87 230.00
  Q 315.03 230.44 320.12 232.58
  Q 320.60 232.78 320.70 232.28
  L 324.35 214.27
  Q 324.69 212.58 322.99 212.27
  Q 317.77 211.34 312.26 210.72
  Q 307.42 210.19 302.68 210.69
  Q 297.51 211.25 293.34 212.41
  C 284.10 214.97 276.72 222.24 274.72 231.99
  C 272.50 242.78 280.95 254.48 291.30 257.28
  Q 296.40 258.66 301.56 258.87
  Q 306.54 259.06 310.22 259.83
  Q 315.55 260.95 312.97 265.59
  C 310.87 269.36 306.03 269.47 302.08 269.26
  Q 298.93 269.09 296.22 268.09
  Q 292.74 266.80 289.40 265.43
  A 0.54 0.54 0.0 0 0 288.70 265.71
  L 280.24 285.46
  Q 279.97 286.09 280.61 286.33
  C 297.39 292.62 321.87 296.65 333.20 278.47
  Q 339.96 267.63 334.53 255.02
  Q 330.50 245.64 320.72 242.21
  C 315.79 240.49 310.82 241.36 305.78 240.97
  Q 303.80 240.81 301.34 239.63
  C 298.53 238.29 297.88 233.21 300.82 231.69
  Z
  M 148.38 211.46
  Q 148.88 214.69 148.90 218.00
  C 149.00 233.42 149.89 248.96 150.09 264.04
  Q 150.27 277.21 150.96 289.48
  Q 150.99 290.05 151.56 290.07
  L 177.95 290.79
  Q 178.46 290.80 178.47 290.29
  L 179.65 213.69
  Q 179.66 213.19 179.16 213.18
  C 175.59 213.09 172.02 213.07 168.46 212.75
  Q 160.90 212.09 151.67 211.90
  Q 149.99 211.87 148.48 211.37
  A 0.08 0.08 0.0 0 0 148.38 211.46
  Z
  M 451.98 221.08
  C 439.64 211.84 423.78 211.89 411.40 221.04
  Q 398.23 230.76 395.07 246.71
  C 392.14 261.51 398.11 275.68 409.05 285.88
  C 414.81 291.25 422.85 294.17 430.55 293.91
  C 438.64 293.64 445.67 290.86 452.49 287.13
  Q 453.05 286.82 453.05 287.46
  L 453.04 293.05
  Q 453.03 293.73 453.72 293.80
  Q 460.50 294.48 467.27 295.39
  C 470.96 295.89 474.62 295.85 478.17 296.83
  Q 478.74 296.98 478.75 296.39
  C 478.98 286.71 478.91 276.75 479.28 266.94
  Q 480.03 246.66 480.06 226.89
  Q 480.06 222.48 480.56 218.05
  Q 480.61 217.60 480.15 217.55
  L 453.20 214.93
  Q 452.24 214.84 452.24 215.81
  L 452.27 220.93
  Q 452.27 221.29 451.98 221.08
  Z"
/>
<path fill="#ffffff" d="
  M 141.01 142.83
  Q 140.89 143.55 139.86 143.64
  Q 139.13 143.71 138.42 143.96
  Q 123.95 149.01 119.95 164.03
  Q 119.49 165.78 119.48 167.75
  Q 119.40 179.72 119.45 197.50
  Q 119.51 219.10 119.43 240.70
  Q 119.27 285.32 119.24 329.71
  Q 119.23 342.18 120.60 346.32
  Q 124.43 357.90 136.08 363.26
  Q 140.74 365.40 145.35 365.40
  Q 492.51 365.40 785.31 365.47
  Q 794.27 365.47 798.03 364.50
  C 807.05 362.17 814.19 355.06 817.05 346.05
  Q 818.37 341.86 818.33 333.23
  Q 818.10 287.50 818.33 241.94
  Q 818.33 241.66 818.47 241.41
  Q 818.67 241.07 818.90 240.75
  Q 819.16 241.61 819.16 242.50
  Q 819.08 289.28 819.19 336.07
  Q 819.20 342.20 818.13 345.80
  C 815.49 354.63 809.27 361.63 800.50 364.91
  Q 796.93 366.24 789.97 366.23
  Q 669.75 366.02 548.84 366.30
  Q 545.72 366.30 541.47 366.92
  Q 538.00 367.42 534.34 367.41
  Q 482.02 367.25 431.20 367.23
  C 427.47 367.22 423.88 367.95 420.30 367.59
  C 416.34 367.19 412.59 368.00 408.50 367.53
  Q 406.02 367.25 403.50 367.26
  Q 277.37 367.54 151.25 367.27
  Q 146.70 367.26 142.16 367.19
  C 140.55 367.16 140.17 366.65 139.08 365.76
  Q 138.65 365.40 138.09 365.35
  L 135.01 365.07
  A 1.26 1.25 69.3 0 1 134.25 364.72
  Q 132.96 363.44 131.18 362.72
  Q 130.52 362.45 130.27 361.79
  Q 129.91 360.84 129.17 360.11
  C 126.82 357.80 124.08 355.32 122.55 352.46
  Q 121.75 350.97 120.81 349.62
  C 119.17 347.27 119.14 344.12 118.08 341.49
  Q 117.78 340.74 117.78 339.86
  Q 117.75 297.12 117.78 255.88
  C 117.78 253.98 118.76 252.69 118.79 250.75
  C 119.16 223.77 118.91 196.74 118.76 169.74
  Q 118.73 164.34 120.06 160.75
  Q 121.74 156.20 124.66 152.71
  Q 127.82 148.93 133.50 145.26
  Q 137.35 142.78 141.01 142.83
  Z"
/>
<path fill="#ffffff" d="
  M 590.59 178.62
  C 597.25 167.14 614.90 168.64 622.50 178.25
  C 627.12 184.09 627.27 192.59 623.20 198.93
  Q 615.88 210.34 601.44 207.71
  Q 595.73 206.67 591.90 201.23
  Q 583.98 190.01 590.59 178.62
  Z
  M 596.31 199.64
  C 600.39 204.29 607.77 204.54 613.19 202.14
  Q 619.60 199.31 621.17 192.43
  C 623.47 182.41 616.08 175.49 606.40 175.00
  C 592.48 174.30 588.23 190.45 596.31 199.64
  Z"
/>
<path fill="#ffffff" d="
  M 171.39 174.11
  C 181.45 178.45 184.19 190.32 178.12 199.01
  Q 174.80 203.76 169.27 205.16
  C 163.95 206.51 158.48 206.68 153.93 203.09
  Q 147.07 197.67 147.08 188.70
  Q 147.09 179.41 155.10 174.27
  C 159.28 171.59 167.94 172.62 171.39 174.11
  Z"
/>
<path fill="#241817" d="
  M 596.31 199.64
  C 588.23 190.45 592.48 174.30 606.40 175.00
  C 616.08 175.49 623.47 182.41 621.17 192.43
  Q 619.60 199.31 613.19 202.14
  C 607.77 204.54 600.39 204.29 596.31 199.64
  Z"
/>
<path fill="#ffffff" d="
  M 373.02 217.14
  L 386.48 218.71
  Q 387.45 218.82 387.23 219.77
  L 382.39 241.45
  Q 382.26 242.05 381.65 242.04
  Q 376.45 241.93 370.31 240.87
  Q 368.71 240.59 368.63 242.22
  Q 368.45 246.26 368.11 250.25
  Q 367.62 255.88 368.95 262.03
  C 371.28 272.81 380.05 274.83 387.89 267.13
  Q 388.35 266.67 388.64 267.25
  L 397.53 285.24
  A 0.77 0.76 53.4 0 1 397.41 286.09
  Q 392.93 290.92 387.52 293.46
  Q 378.50 297.70 368.29 298.52
  Q 365.65 298.74 362.46 298.35
  C 358.42 297.85 354.88 296.57 351.56 294.38
  C 345.92 290.66 343.14 280.90 342.44 274.76
  Q 340.58 258.45 342.57 244.44
  Q 342.99 241.50 342.99 238.85
  Q 343.00 238.31 342.46 238.28
  L 330.82 237.53
  Q 330.39 237.50 330.56 237.11
  Q 330.71 236.71 330.75 236.29
  Q 331.75 224.60 332.78 213.36
  A 0.53 0.52 5.4 0 1 333.36 212.89
  L 346.12 214.26
  Q 346.59 214.31 346.68 213.86
  L 349.95 198.05
  Q 350.09 197.42 350.73 197.54
  L 375.40 202.25
  Q 375.93 202.35 375.80 202.88
  L 372.57 216.49
  Q 372.43 217.07 373.02 217.14
  Z"
/>
<path fill="#ffffff" d="
  M 682.21 261.30
  L 707.76 263.94
  Q 708.27 264.00 708.27 264.51
  L 708.27 292.74
  Q 708.27 293.25 707.76 293.25
  L 635.74 293.25
  Q 635.21 293.25 635.10 292.73
  L 630.65 270.24
  A 1.05 1.03 -30.4 0 1 630.89 269.35
  L 657.43 238.45
  A 0.32 0.31 -66.3 0 0 657.23 237.93
  L 636.45 235.29
  A 0.29 0.28 -79.9 0 1 636.21 234.94
  L 643.52 203.54
  Q 643.65 203.00 644.21 203.03
  L 702.72 205.97
  Q 703.34 206.00 703.23 206.60
  Q 700.31 222.37 697.35 238.80
  Q 696.99 240.82 695.73 242.49
  Q 688.92 251.56 682.03 260.90
  A 0.26 0.25 21.3 0 0 682.21 261.30
  Z
  M 665.99 234.65
  A 0.32 0.32 0.0 0 1 666.19 235.18
  L 635.47 270.87
  A 0.32 0.32 0.0 0 0 635.40 271.14
  L 638.79 288.49
  A 0.32 0.32 0.0 0 0 639.10 288.75
  L 703.44 288.75
  A 0.32 0.32 0.0 0 0 703.76 288.43
  L 703.76 268.54
  A 0.32 0.32 0.0 0 0 703.47 268.22
  L 673.89 265.06
  A 0.32 0.32 0.0 0 1 673.67 264.55
  L 692.70 239.10
  A 0.32 0.32 0.0 0 0 692.76 238.97
  L 697.85 210.62
  A 0.32 0.32 0.0 0 0 697.55 210.24
  L 647.53 207.76
  A 0.32 0.32 0.0 0 0 647.21 208.01
  L 641.62 230.92
  A 0.32 0.32 0.0 0 0 641.89 231.31
  L 665.99 234.65
  Z"
/>
<path fill="#ffffff" d="
  M 764.68 261.35
  L 789.85 263.96
  A 0.63 0.63 0.0 0 1 790.41 264.59
  L 790.41 292.67
  A 0.58 0.58 0.0 0 1 789.83 293.25
  L 717.80 293.24
  Q 717.34 293.24 717.25 292.80
  L 712.76 270.29
  Q 712.65 269.74 713.02 269.31
  L 739.51 238.51
  A 0.36 0.36 0.0 0 0 739.28 237.92
  L 718.81 235.32
  Q 718.24 235.25 718.37 234.69
  L 725.66 203.51
  Q 725.78 203.00 726.32 203.02
  L 784.79 205.97
  Q 785.44 206.00 785.32 206.64
  Q 782.33 222.78 779.51 238.76
  Q 779.16 240.73 777.95 242.36
  Q 770.64 252.12 764.36 260.61
  Q 763.87 261.27 764.68 261.35
  Z
  M 748.13 234.66
  A 0.31 0.31 0.0 0 1 748.32 235.17
  L 717.57 270.89
  A 0.31 0.31 0.0 0 0 717.50 271.15
  L 720.88 288.51
  A 0.31 0.31 0.0 0 0 721.19 288.76
  L 785.58 288.75
  A 0.31 0.31 0.0 0 0 785.89 288.44
  L 785.87 268.48
  A 0.31 0.31 0.0 0 0 785.59 268.17
  L 755.99 265.07
  A 0.31 0.31 0.0 0 1 755.78 264.57
  L 774.85 239.08
  A 0.31 0.31 0.0 0 0 774.90 238.95
  L 779.96 210.61
  A 0.31 0.31 0.0 0 0 779.67 210.24
  L 729.63 207.76
  A 0.31 0.31 0.0 0 0 729.31 208.00
  L 723.73 230.93
  A 0.31 0.31 0.0 0 0 723.99 231.31
  L 748.13 234.66
  Z"
/>
<path fill="#241817" d="
  M 665.99 234.65
  L 641.89 231.31
  A 0.32 0.32 0.0 0 1 641.62 230.92
  L 647.21 208.01
  A 0.32 0.32 0.0 0 1 647.53 207.76
  L 697.55 210.24
  A 0.32 0.32 0.0 0 1 697.85 210.62
  L 692.76 238.97
  A 0.32 0.32 0.0 0 1 692.70 239.10
  L 673.67 264.55
  A 0.32 0.32 0.0 0 0 673.89 265.06
  L 703.47 268.22
  A 0.32 0.32 0.0 0 1 703.76 268.54
  L 703.76 288.43
  A 0.32 0.32 0.0 0 1 703.44 288.75
  L 639.10 288.75
  A 0.32 0.32 0.0 0 1 638.79 288.49
  L 635.40 271.14
  A 0.32 0.32 0.0 0 1 635.47 270.87
  L 666.19 235.18
  A 0.32 0.32 0.0 0 0 665.99 234.65
  Z"
/>
<path fill="#241817" d="
  M 748.13 234.66
  L 723.99 231.31
  A 0.31 0.31 0.0 0 1 723.73 230.93
  L 729.31 208.00
  A 0.31 0.31 0.0 0 1 729.63 207.76
  L 779.67 210.24
  A 0.31 0.31 0.0 0 1 779.96 210.61
  L 774.90 238.95
  A 0.31 0.31 0.0 0 1 774.85 239.08
  L 755.78 264.57
  A 0.31 0.31 0.0 0 0 755.99 265.07
  L 785.59 268.17
  A 0.31 0.31 0.0 0 1 785.87 268.48
  L 785.89 288.44
  A 0.31 0.31 0.0 0 1 785.58 288.75
  L 721.19 288.76
  A 0.31 0.31 0.0 0 1 720.88 288.51
  L 717.50 271.15
  A 0.31 0.31 0.0 0 1 717.57 270.89
  L 748.32 235.17
  A 0.31 0.31 0.0 0 0 748.13 234.66
  Z"
/>
<path fill="#ffffff" d="
  M 527.53 288.23
  L 529.71 330.25
  A 0.59 0.59 0.0 0 1 529.24 330.85
  L 496.72 337.60
  Q 496.00 337.75 495.96 337.02
  L 488.65 215.03
  Q 488.63 214.74 488.92 214.68
  L 522.66 208.12
  Q 523.26 208.00 523.35 208.61
  L 524.49 216.24
  Q 524.59 216.93 525.14 216.49
  C 542.26 202.68 568.77 205.82 578.72 226.64
  C 586.18 242.24 583.76 265.17 573.39 279.42
  Q 568.98 285.49 559.92 288.44
  Q 552.26 290.94 545.74 290.77
  Q 536.98 290.55 528.23 287.69
  Q 527.49 287.45 527.53 288.23
  Z
  M 523.46 281.41
  Q 532.56 284.71 540.57 285.86
  Q 550.49 287.29 561.46 282.93
  Q 566.39 280.97 569.19 277.46
  C 579.61 264.42 581.36 240.74 573.11 226.48
  Q 566.92 215.77 554.65 213.43
  Q 537.84 210.22 525.05 222.82
  Q 524.61 223.25 524.03 223.07
  L 521.33 222.20
  Q 520.69 221.99 520.59 221.32
  L 519.44 213.78
  Q 519.36 213.25 518.84 213.35
  L 493.97 218.14
  Q 493.42 218.24 493.46 218.80
  L 500.17 331.66
  Q 500.21 332.25 500.79 332.13
  L 524.40 327.36
  Q 524.92 327.26 524.89 326.73
  L 522.71 281.97
  Q 522.67 281.12 523.46 281.41
  Z"
/>
<path fill="#ffffff" d="
  M 217.23 216.01
  Q 226.22 210.03 234.75 209.17
  Q 251.82 207.45 261.12 219.69
  C 265.07 224.89 267.33 231.46 268.49 237.94
  Q 269.62 244.28 269.88 250.60
  Q 270.62 269.25 267.23 287.88
  Q 267.14 288.41 266.60 288.34
  L 240.60 284.81
  A 0.80 0.80 0.0 0 1 239.91 283.96
  Q 240.26 278.81 240.82 272.51
  C 241.74 262.13 241.69 250.03 239.23 239.52
  C 237.89 233.79 234.37 228.39 227.58 230.04
  C 220.55 231.75 216.88 240.80 215.97 247.18
  Q 213.39 265.15 216.27 281.99
  Q 216.91 285.69 216.99 287.91
  Q 217.01 288.45 216.48 288.51
  L 191.68 291.30
  Q 191.18 291.35 191.17 290.85
  L 190.00 213.03
  Q 189.99 212.55 190.47 212.52
  L 216.16 210.86
  Q 216.75 210.82 216.75 211.42
  L 216.75 215.75
  Q 216.74 216.34 217.23 216.01
  Z"
/>
<path fill="#ffffff" d="
  M 624.50 211.81
  L 623.18 292.44
  A 0.32 0.32 0.0 0 1 622.85 292.75
  L 591.84 292.25
  A 0.32 0.32 0.0 0 1 591.52 291.93
  L 589.12 209.85
  A 0.32 0.32 0.0 0 1 589.46 209.52
  L 624.20 211.48
  A 0.32 0.32 0.0 0 1 624.50 211.81
  Z
  M 619.99 216.05
  A 0.30 0.30 0.0 0 0 619.71 215.74
  L 593.95 214.27
  A 0.30 0.30 0.0 0 0 593.63 214.58
  L 596.00 287.46
  A 0.30 0.30 0.0 0 0 596.29 287.75
  L 618.35 288.24
  A 0.30 0.30 0.0 0 0 618.66 287.95
  L 619.99 216.05
  Z"
/>
<path fill="#ffffff" d="
  M 300.82 231.69
  C 297.88 233.21 298.53 238.29 301.34 239.63
  Q 303.80 240.81 305.78 240.97
  C 310.82 241.36 315.79 240.49 320.72 242.21
  Q 330.50 245.64 334.53 255.02
  Q 339.96 267.63 333.20 278.47
  C 321.87 296.65 297.39 292.62 280.61 286.33
  Q 279.97 286.09 280.24 285.46
  L 288.70 265.71
  A 0.54 0.54 0.0 0 1 289.40 265.43
  Q 292.74 266.80 296.22 268.09
  Q 298.93 269.09 302.08 269.26
  C 306.03 269.47 310.87 269.36 312.97 265.59
  Q 315.55 260.95 310.22 259.83
  Q 306.54 259.06 301.56 258.87
  Q 296.40 258.66 291.30 257.28
  C 280.95 254.48 272.50 242.78 274.72 231.99
  C 276.72 222.24 284.10 214.97 293.34 212.41
  Q 297.51 211.25 302.68 210.69
  Q 307.42 210.19 312.26 210.72
  Q 317.77 211.34 322.99 212.27
  Q 324.69 212.58 324.35 214.27
  L 320.70 232.28
  Q 320.60 232.78 320.12 232.58
  Q 315.03 230.44 308.87 230.00
  Q 304.65 229.71 300.82 231.69
  Z"
/>
<path fill="#ffffff" d="
  M 148.38 211.46
  A 0.08 0.08 0.0 0 1 148.48 211.37
  Q 149.99 211.87 151.67 211.90
  Q 160.90 212.09 168.46 212.75
  C 172.02 213.07 175.59 213.09 179.16 213.18
  Q 179.66 213.19 179.65 213.69
  L 178.47 290.29
  Q 178.46 290.80 177.95 290.79
  L 151.56 290.07
  Q 150.99 290.05 150.96 289.48
  Q 150.27 277.21 150.09 264.04
  C 149.89 248.96 149.00 233.42 148.90 218.00
  Q 148.88 214.69 148.38 211.46
  Z"
/>
<path fill="#241817" d="
  M 522.71 281.97
  L 524.89 326.73
  Q 524.92 327.26 524.40 327.36
  L 500.79 332.13
  Q 500.21 332.25 500.17 331.66
  L 493.46 218.80
  Q 493.42 218.24 493.97 218.14
  L 518.84 213.35
  Q 519.36 213.25 519.44 213.78
  L 520.59 221.32
  Q 520.69 221.99 521.33 222.20
  L 524.03 223.07
  Q 524.61 223.25 525.05 222.82
  Q 537.84 210.22 554.65 213.43
  Q 566.92 215.77 573.11 226.48
  C 581.36 240.74 579.61 264.42 569.19 277.46
  Q 566.39 280.97 561.46 282.93
  Q 550.49 287.29 540.57 285.86
  Q 532.56 284.71 523.46 281.41
  Q 522.67 281.12 522.71 281.97
  Z
  M 541.35 270.71
  C 550.68 269.80 557.88 260.14 556.38 251.00
  C 555.44 245.33 551.76 239.38 546.28 237.09
  C 539.20 234.15 531.44 237.45 526.49 242.74
  Q 522.04 247.49 522.81 254.55
  C 523.98 265.19 530.02 271.81 541.35 270.71
  Z"
/>
<path fill="#ffffff" d="
  M 452.27 220.93
  L 452.24 215.81
  Q 452.24 214.84 453.20 214.93
  L 480.15 217.55
  Q 480.61 217.60 480.56 218.05
  Q 480.06 222.48 480.06 226.89
  Q 480.03 246.66 479.28 266.94
  C 478.91 276.75 478.98 286.71 478.75 296.39
  Q 478.74 296.98 478.17 296.83
  C 474.62 295.85 470.96 295.89 467.27 295.39
  Q 460.50 294.48 453.72 293.80
  Q 453.03 293.73 453.04 293.05
  L 453.05 287.46
  Q 453.05 286.82 452.49 287.13
  C 445.67 290.86 438.64 293.64 430.55 293.91
  C 422.85 294.17 414.81 291.25 409.05 285.88
  C 398.11 275.68 392.14 261.51 395.07 246.71
  Q 398.23 230.76 411.40 221.04
  C 423.78 211.89 439.64 211.84 451.98 221.08
  Q 452.27 221.29 452.27 220.93
  Z
  M 437.1505 267.0146
  A 15.68 15.04 88.5 0 0 451.7748 250.9463
  A 15.68 15.04 88.5 0 0 436.3295 235.6654
  A 15.68 15.04 88.5 0 0 421.7052 251.7337
  A 15.68 15.04 88.5 0 0 437.1505 267.0146
  Z"
/>
<path fill="#241817" d="
  M 619.99 216.05
  L 618.66 287.95
  A 0.30 0.30 0.0 0 1 618.35 288.24
  L 596.29 287.75
  A 0.30 0.30 0.0 0 1 596.00 287.46
  L 593.63 214.58
  A 0.30 0.30 0.0 0 1 593.95 214.27
  L 619.71 215.74
  A 0.30 0.30 0.0 0 1 619.99 216.05
  Z"
/>
<ellipse fill="#241817" cx="0.00" cy="0.00" transform="translate(436.74,251.34) rotate(88.5)" rx="15.68" ry="15.04"/>
<path fill="#ffffff" d="
  M 556.38 251.00
  C 557.88 260.14 550.68 269.80 541.35 270.71
  C 530.02 271.81 523.98 265.19 522.81 254.55
  Q 522.04 247.49 526.49 242.74
  C 531.44 237.45 539.20 234.15 546.28 237.09
  C 551.76 239.38 555.44 245.33 556.38 251.00
  Z
  M 536.52 265.95
  C 548.18 268.04 555.99 256.30 550.01 246.18
  Q 546.40 240.07 540.26 240.64
  Q 535.39 241.09 530.30 245.66
  C 528.59 247.19 527.29 249.92 527.29 252.26
  C 527.31 258.57 529.50 264.69 536.52 265.95
  Z"
/>
<path fill="#241817" d="
  M 536.52 265.95
  C 529.50 264.69 527.31 258.57 527.29 252.26
  C 527.29 249.92 528.59 247.19 530.30 245.66
  Q 535.39 241.09 540.26 240.64
  Q 546.40 240.07 550.01 246.18
  C 555.99 256.30 548.18 268.04 536.52 265.95
  Z"
/>
</svg>
